#N canvas 325 151 251 231 10;
#X obj 87 165 bng 15 250 50 0 empty empty empty 17 7 0 10 -262144 -1
-1;
#X obj 186 11 loadbang;
#X obj 19 134 gate 2;
#X msg 133 71 1;
#X msg 77 73 2;
#X obj 77 9 inlet;
#X obj 134 13 inlet;
#X obj 70 195 outlet;
#X obj 19 195 outlet;
#X obj 11 8 inlet;
#X connect 0 0 3 0;
#X connect 1 0 3 0;
#X connect 2 0 8 0;
#X connect 2 1 0 0;
#X connect 2 1 7 0;
#X connect 3 0 2 0;
#X connect 4 0 2 0;
#X connect 5 0 4 0;
#X connect 6 0 3 0;
#X connect 9 0 2 1;
