#N canvas 481 119 799 576 10;
#X obj 511 239 scale 10 120 20 2000;
#X floatatom 511 215 0 0 0 0 - - -;
#X text 135 285 gate threshhold;
#X floatatom 124 254 0 0 0 0 - - -;
#X obj 78 286 debounce;
#X text 65 -57 accelerometer;
#X obj 77 -110 hsl 300 20 -1 1 0 0 empty empty empty 0 -8 0 8 -262144
-1 -1 26611 1;
#X floatatom 130 126 0 0 0 0 - - -;
#X floatatom 8 47 0 0 0 0 - - -;
#X obj 72 159 ali.attack;
#X obj 65 -38 hsl 300 20 -1 1 0 0 empty empty empty 0 -8 0 8 -262144
-1 -1 15774 1;
#X text 72 -130 threshhold;
#X obj -101 -115 loadbang;
#X obj 125 200 loadbang;
#X msg 124 222 25;
#X obj 167 79 loadbang;
#X obj -4 -167 inlet;
#X obj 39 -167 inlet;
#X obj 523 26 inlet;
#X obj 29 367 outlet;
#X obj 511 270 outlet;
#X obj 129 79 inlet;
#X obj 33 198 bng 15 250 50 0 empty empty empty 17 7 0 10 -262144 -1
-1;
#X msg -101 -93 0.6;
#X msg 166 101 90;
#X floatatom 25 129 5 0 0 0 - - -;
#X connect 0 0 20 0;
#X connect 1 0 0 0;
#X connect 3 0 4 1;
#X connect 4 0 19 0;
#X connect 6 0 8 0;
#X connect 7 0 9 2;
#X connect 8 0 9 1;
#X connect 9 0 4 0;
#X connect 9 0 22 0;
#X connect 9 1 1 0;
#X connect 10 0 9 0;
#X connect 12 0 23 0;
#X connect 13 0 14 0;
#X connect 14 0 3 0;
#X connect 15 0 24 0;
#X connect 16 0 10 0;
#X connect 17 0 6 0;
#X connect 18 0 3 0;
#X connect 21 0 7 0;
#X connect 23 0 8 0;
#X connect 23 0 6 0;
#X connect 24 0 7 0;
#X connect 25 0 9 0;
