#N canvas 677 152 216 215 10;
#X floatatom -8 84 5 0 8 0 - - -;
#X floatatom 80 17 5 0 127 0 - - -;
#X obj 80 44 t b i;
#X msg -41 24 set \$1;
#X obj 5 114 pack i s i;
#X msg -22 144 \; \$1-\$2 \$3;
#X obj 21 12 symbol;
#X obj -41 1 inlet;
#X obj 21 -14 inlet;
#X obj 80 -7 inlet;
#X connect 0 0 4 0;
#X connect 1 0 2 0;
#X connect 2 0 0 0;
#X connect 2 1 4 2;
#X connect 3 0 0 0;
#X connect 4 0 5 0;
#X connect 6 0 4 1;
#X connect 7 0 3 0;
#X connect 8 0 6 0;
#X connect 9 0 1 0;
